<svg width="24" height="24" viewBox="0 0 24 24" fill="none" xmlns="http://www.w3.org/2000/svg">
<g clip-path="url(#clip0_178_11971)">
<path d="M15.9996 23.1495C16.126 23.1495 16.2457 23.0938 16.327 22.9969C16.4082 22.9001 16.4427 22.772 16.4208 22.6478C16.4202 22.6456 16.2479 21.6664 16.1004 20.6353C15.8504 18.8842 13.7071 18.3581 13.4485 18.3008C13.4482 18.3008 13.4479 18.3005 13.4476 18.3005C13.4476 18.3005 11.6918 17.9147 11.2517 17.7794C10.7581 17.6272 10.3793 17.2673 10.1786 16.8057C11.7574 16.0817 12.595 14.2872 12.73 12.4807V12.2674H13.3527C13.589 12.2674 13.7802 12.0759 13.7802 11.8399C13.7802 11.6038 13.589 11.4123 13.3527 11.4123H12.9413L12.8948 10.9425C12.7712 9.69319 11.9133 8.65496 10.7097 8.29866L10.0748 8.10994V7.90008C10.0748 7.66402 9.88352 7.47253 9.64723 7.47253H7.53842C7.30263 7.47253 7.11115 7.6635 7.11087 7.89896L7.11031 8.10746L6.46034 8.30035C5.26118 8.65608 4.40384 9.68935 4.27638 10.9325L4.22684 11.4124H3.82432C3.58826 11.4124 3.39677 11.6039 3.39677 11.8399C3.39677 12.076 3.58831 12.2675 3.82432 12.2675H4.46482L4.4651 12.513C4.59898 14.2892 5.43157 16.0729 7.0009 16.7997C6.80046 17.2648 6.42082 17.6267 5.92615 17.7795C5.48552 17.9148 3.72935 18.3006 3.72935 18.3006C3.72907 18.3006 3.72907 18.3008 3.72851 18.3008C3.47074 18.3579 1.32659 18.884 1.0766 20.6354C0.929087 21.6664 0.756774 22.6457 0.756493 22.6479C0.734509 22.7721 0.769009 22.9001 0.850009 22.997C0.93129 23.0939 1.05124 23.1495 1.17762 23.1495L15.9996 23.1495ZM13.4546 19.1863V22.2944H11.2704L12.1091 18.8784C12.4116 18.948 13.3466 19.1543 13.4546 19.1863ZM15.2539 20.7567C15.3374 21.3402 15.429 21.9069 15.4933 22.2944H14.3097V19.5506C14.7473 19.805 15.1732 20.1911 15.2539 20.7567ZM10.4665 9.11813C11.3355 9.37589 11.9546 10.1247 12.0439 11.0271L12.0821 11.4123H10.0748V9.00178L10.4665 9.11813ZM9.21973 8.32763V11.4124H7.95851L7.96521 8.32763H9.21973ZM5.12707 11.0198C5.21895 10.1224 5.83798 9.37697 6.7031 9.11982L7.10838 8.99958L7.10337 11.4124H5.08643L5.12707 11.0198ZM5.31912 12.4807V12.2674H11.8758L11.876 12.4484C11.7324 14.3596 10.6627 16.288 8.59704 16.288C6.5314 16.288 5.46167 14.3596 5.31912 12.4807ZM8.59704 17.1431C8.86174 17.1431 9.10976 17.1136 9.34859 17.0683C9.47773 17.3967 9.67038 17.6898 9.91226 17.9356L8.60707 18.9959L7.27596 17.9209C7.50729 17.6801 7.69432 17.392 7.82571 17.0647C8.0704 17.1125 8.32507 17.1431 8.59704 17.1431ZM5.07082 18.8778L5.9404 22.2944H3.72246V19.1863C3.83074 19.1543 4.76717 18.9474 5.07082 18.8778ZM1.92321 20.7567C2.00393 20.1911 2.42984 19.805 2.86741 19.5506V22.2944H1.6841C1.74837 21.9069 1.83968 21.3396 1.92321 20.7567ZM6.82282 22.2944L5.90145 18.6746C6.00279 18.6476 6.43756 18.5015 6.55976 18.4411L8.33899 19.8782C8.41751 19.9417 8.51243 19.9734 8.60759 19.9734C8.70335 19.9734 8.79856 19.9417 8.87731 19.8777L10.6346 18.4503C10.7517 18.5068 11.1762 18.6479 11.2784 18.6752L10.3899 22.2944H6.82282Z" fill="#C51605"/>
<path d="M9.21973 8.32763V11.4124H7.95851L7.96521 8.32763H9.21973Z" fill="#C51605"/>
<path d="M5.12707 11.0198C5.21895 10.1224 5.83798 9.37697 6.7031 9.11982L7.10838 8.99958L7.10337 11.4124H5.08643L5.12707 11.0198Z" fill="#C51605"/>
<path d="M10.4665 9.11813C11.3355 9.37589 11.9546 10.1247 12.0439 11.0271L12.0821 11.4123H10.0748V9.00178L10.4665 9.11813Z" fill="#C51605"/>
<path d="M15.4386 10.0317H18.4225V11.7486H17.8967C17.5666 11.7486 17.298 12.0169 17.298 12.3471V16.5424C17.298 17.4794 18.0604 18.2415 18.9973 18.2415C19.9343 18.2415 20.6967 17.4794 20.6967 16.5424V12.3471C20.6967 12.0169 20.4281 11.7486 20.098 11.7486H19.2777V10.0317H22.2889C22.6174 10.0317 22.9194 9.86696 23.097 9.59082C23.2746 9.31468 23.2993 8.97174 23.1635 8.67338L19.8605 1.41329C19.7024 1.0659 19.3672 0.850464 18.9856 0.850464C18.6157 0.850464 18.285 1.057 18.1227 1.38934L14.5753 8.64938C14.4289 8.94892 14.447 9.29682 14.6235 9.57967C14.8003 9.86246 15.1051 10.0317 15.4386 10.0317ZM19.8416 16.5424C19.8416 17.0079 19.4627 17.3864 18.9973 17.3864C18.5319 17.3864 18.153 17.0079 18.153 16.5424V16.2496H19.8415V16.5424H19.8416ZM19.8416 15.3945H18.1531V12.6037H19.8416V15.3945ZM15.3436 9.02462L18.891 1.76457C18.9102 1.72506 18.9419 1.70556 18.9856 1.70556C19.0168 1.70556 19.0588 1.71615 19.0822 1.76734L22.3852 9.02738C22.4047 9.07079 22.3919 9.1059 22.378 9.12817C22.3635 9.15043 22.3368 9.17659 22.2889 9.17659H19.2777V7.35226C19.2777 7.1162 19.0861 6.92471 18.8501 6.92471C18.6141 6.92471 18.4226 7.11624 18.4226 7.35226V9.17659H15.4386C15.3902 9.17659 15.3632 9.14931 15.349 9.12704C15.3347 9.10421 15.3225 9.06807 15.3436 9.02462Z" fill="#C51605"/>
</g>
<defs>
<clipPath id="clip0_178_11971">
<rect width="24" height="24" fill="white"/>
</clipPath>
</defs>
</svg>
