<svg width="24" height="24" viewBox="0 0 24 24" fill="none" xmlns="http://www.w3.org/2000/svg">
<g clip-path="url(#clip0_178_11965)">
<path d="M7.40936 11.6754H4.02687C3.81087 11.6754 3.63574 11.8505 3.63574 12.0665V15.8894C3.63574 16.1054 3.81087 16.2805 4.02687 16.2805H7.40936C7.62536 16.2805 7.80048 16.1054 7.80048 15.8894V12.0666C7.80048 11.8505 7.62536 11.6754 7.40936 11.6754ZM7.01819 15.4983H4.41799V14.3691H7.01819V15.4983ZM7.01819 13.5869H4.41799V12.4578H7.01819V13.5869Z" fill="#C51605"/>
<path d="M23.3516 19.7308H23.1759C23.0798 18.8735 22.6723 18.1092 22.0689 17.5542V10.9842C22.2338 11.0633 22.4141 11.1054 22.5978 11.1054C23.0243 11.1054 23.4135 10.8895 23.6388 10.5278C23.9962 9.95424 23.8202 9.19688 23.2466 8.83946L12.6481 2.23727C12.4534 2.116 12.2293 2.05188 12 2.05188C11.7707 2.05188 11.5466 2.11596 11.352 2.23722L8.44203 4.05002V3.57302C8.44203 3.06982 8.03263 2.66036 7.52938 2.66036H3.80048C3.29728 2.66036 2.88782 3.06982 2.88782 3.57302V7.50995L0.75342 8.83951C0.179859 9.19683 0.00389059 9.95419 0.361218 10.5278C0.58664 10.8896 0.975795 11.1055 1.40226 11.1055C1.58583 11.1055 1.76601 11.0634 1.93073 10.9845V17.5542C1.3274 18.1093 0.919873 18.8735 0.823733 19.7308H0.648374C0.290906 19.7308 0 20.0216 0 20.3791V21.2997C0 21.6572 0.290906 21.9482 0.648421 21.9482H23.3516C23.7091 21.9482 24 21.6573 24 21.2997V20.3791C24 20.0216 23.7091 19.7308 23.3516 19.7308ZM22.3875 19.7308H17.0296C17.2197 18.4225 18.3484 17.4143 19.7085 17.4143C21.0686 17.4143 22.1973 18.4225 22.3875 19.7308ZM3.67007 3.57302C3.67007 3.50233 3.72979 3.44266 3.80043 3.44266H7.52933C7.60002 3.44266 7.65969 3.50238 7.65969 3.57302V4.53733L3.67002 7.02264L3.67007 3.57302ZM1.63575 10.256C1.56525 10.3 1.48448 10.3232 1.40222 10.3232C1.24767 10.3232 1.10672 10.245 1.02515 10.1141C0.89592 9.90666 0.959623 9.63277 1.167 9.50349L11.7657 2.90125C11.8361 2.85738 11.9171 2.83422 12.0001 2.83422C12.083 2.83422 12.164 2.85738 12.2344 2.9013L22.833 9.50344C23.0405 9.63277 23.1042 9.90671 22.9749 10.1141C22.8934 10.2451 22.7525 10.3231 22.5979 10.3231C22.5155 10.3231 22.4348 10.2999 22.3643 10.256L12.2068 3.92856C12.0803 3.84972 11.9198 3.84972 11.7932 3.92856L1.63575 10.256ZM4.29116 17.4143C5.65129 17.4143 6.77994 18.4225 6.97011 19.7308H1.61217C1.80234 18.4225 2.93099 17.4143 4.29116 17.4143ZM7.75634 21.1659H0.782295V20.513H7.75639L7.75634 21.1659ZM15.461 21.1659H8.53864V20.513H11.9998H15.461V21.1659ZM10.0275 19.7308V14.0103H13.9725V19.7308H10.0275ZM14.7548 19.7308V13.6192C14.7548 13.4031 14.5797 13.228 14.3637 13.228H9.63636C9.42036 13.228 9.24523 13.4031 9.24523 13.6192V19.7308H7.75855C7.56341 17.9901 6.08319 16.6321 4.29121 16.6321C3.72341 16.6321 3.1874 16.7693 2.71307 17.0109V10.5067L12.0001 4.72141L21.2867 10.5064V17.0109C20.8124 16.7692 20.2764 16.6321 19.7086 16.6321C17.9165 16.6321 16.4364 17.9901 16.2413 19.7308H14.7548ZM23.2177 21.1659H16.2433V20.513H23.2177V21.1659Z" fill="#C51605"/>
<path d="M10.0275 19.7308V14.0103H13.9725V19.7308H10.0275Z" fill="#C51605"/>
<path d="M20.364 15.8893V12.0665C20.364 11.8505 20.1888 11.6754 19.9728 11.6754H16.5903C16.3743 11.6754 16.1992 11.8505 16.1992 12.0665V15.8894C16.1992 16.1054 16.3743 16.2805 16.5903 16.2805H19.9728C20.1888 16.2805 20.364 16.1054 20.364 15.8893ZM19.5817 15.4982H16.9815V14.3691H19.5817V15.4982ZM19.5817 13.5868H16.9815V12.4578H19.5817V13.5868Z" fill="#C51605"/>
<path d="M11.9997 14.6333C11.2734 14.6333 10.6826 15.2241 10.6826 15.9503C10.6826 16.6766 11.2734 17.2674 11.9997 17.2674C12.7259 17.2674 13.3168 16.6766 13.3168 15.9503C13.3168 15.2241 12.7259 14.6333 11.9997 14.6333ZM11.9997 16.4851C11.7048 16.4851 11.4649 16.2452 11.4649 15.9503C11.4649 15.6555 11.7048 15.4156 11.9997 15.4156C12.2946 15.4156 12.5345 15.6555 12.5345 15.9503C12.5345 16.2452 12.2946 16.4851 11.9997 16.4851Z" fill="#C51605"/>
<path d="M11.9998 5.75793C10.6984 5.75793 9.63965 6.8167 9.63965 8.11804C9.63965 9.41938 10.6984 10.4781 11.9998 10.4781C13.3011 10.4781 14.3599 9.41938 14.3599 8.11804C14.3599 6.81665 13.3012 5.75793 11.9998 5.75793ZM11.6086 9.64672C11.0524 9.50436 10.6135 9.06543 10.4711 8.50916H11.6086V9.64672ZM11.6086 7.72687H10.4711C10.6135 7.1706 11.0524 6.73176 11.6086 6.58931V7.72687ZM12.3909 9.64672V8.50916H13.5285C13.3861 9.06547 12.9472 9.50427 12.3909 9.64672ZM12.3909 7.72687V6.58931C12.9472 6.73176 13.3861 7.17051 13.5285 7.72687H12.3909Z" fill="#C51605"/>
</g>
<defs>
<clipPath id="clip0_178_11965">
<rect width="24" height="24" fill="white"/>
</clipPath>
</defs>
</svg>
