<svg width="24" height="24" viewBox="0 0 24 24" fill="none" xmlns="http://www.w3.org/2000/svg">
<path d="M14.2189 13.4348V12.7471H16.5162V13.4348H14.2189ZM14.2189 11.2313H16.5162V11.9656H14.2189V11.2313ZM14.2189 9.76131H16.5162V10.4963H14.2189V9.76131ZM14.2189 8.24481H16.5162V8.97906L14.2189 8.93256V8.24481ZM14.2189 6.68181H16.5162V7.46331H14.2189V6.68181ZM14.2189 5.21256H16.5162V5.94756H14.2189V5.21256ZM15.5494 18.1148C15.5494 20.5493 13.5754 22.5233 11.1409 22.5233C8.70642 22.5233 6.73242 20.5493 6.73242 18.1148C6.73242 16.4453 7.61367 14.9941 8.98167 14.2456V4.43031C8.98167 3.21306 10.0152 2.22681 11.2324 2.22681C12.4497 2.22681 13.4367 3.21306 13.4367 4.43031V14.3566C14.7027 15.1321 15.5494 16.5226 15.5494 18.1148ZM12.7024 14.8013V4.43031C12.7024 3.61881 12.0447 2.96106 11.2332 2.96106C10.4217 2.96106 9.76392 3.61881 9.76392 4.43031V14.7136C8.41842 15.2596 7.46742 16.5736 7.46742 18.1148C7.46742 20.1436 9.11217 21.7883 11.1409 21.7883C13.1697 21.7883 14.8137 20.1436 14.8137 18.1148C14.8144 16.6463 13.9474 15.3901 12.7024 14.8013ZM11.1409 21.0541C9.51717 21.0541 8.20167 19.7378 8.20167 18.1148C8.20167 16.7131 9.18492 15.5453 10.4982 15.2513V8.24481H11.9682V15.3083C13.1854 15.6676 14.0802 16.7813 14.0802 18.1148C14.0802 19.7378 12.7647 21.0541 11.1409 21.0541Z" fill="#C51605"/>
</svg>
